<svg version="1.1" viewBox="0.0 0.0 250.0 100.0" fill="none" stroke="none" stroke-linecap="square" stroke-miterlimit="10" xmlns:xlink="http://www.w3.org/1999/xlink" xmlns="http://www.w3.org/2000/svg"><clipPath id="p.0"><path d="m0 0l250.0 0l0 100.0l-250.0 0l0 -100.0z" clip-rule="nonzero"/></clipPath><g clip-path="url(#p.0)"><path fill="#002626" fill-opacity="0.0" d="m0 0l250.0 0l0 100.0l-250.0 0z" fill-rule="evenodd"/><path fill="#002626" fill-opacity="0.0" d="m5.6876636 -9.171729l184.0 0l0 229.4803l-184.0 0z" fill-rule="evenodd"/><path fill="#002626" d="m50.281414 60.14389q0.609375 1.125 1.046875 2.40625q0.234375 -0.640625 0.5 -1.25q0.265625 -0.625 0.578125 -1.1875l22.234371 -39.328125q0.328125 -0.515625 0.640625 -0.625q0.328125 -0.125 0.890625 -0.125l2.828125 0l0 56.59375l-3.59375 0l0 -48.234375q0 -1.046875 0.125 -2.203125l-22.281246 39.5625q-0.5625 1.03125 -1.609375 1.03125l-0.640625 0q-1.0 0 -1.59375 -1.03125l-22.875 -39.609375q0.109375 1.171875 0.109375 2.25l0 48.234375l-3.546875 0l0 -56.59375l2.796875 0q0.5625 0 0.890625 0.125q0.34375 0.109375 0.671875 0.625l22.828125 39.359375l0 0zm51.12617 16.484375l-4.125 0l0 -56.59375l4.125 0l0 56.59375zm20.326233 -56.59375q0.546875 0 0.859375 0.140625q0.328125 0.140625 0.6875 0.609375l36.640633 49.046875q-0.109375 -1.203125 -0.109375 -2.328125l0 -47.46875l3.59375 0l0 56.59375l-1.953125 0q-0.921875 0 -1.484375 -0.796875l-36.796883 -49.125q0.109375 1.203125 0.109375 2.28125l0 47.640625l-3.546875 0l0 -56.59375l2.0 0l0 0z" fill-rule="nonzero"/><path fill="#002626" fill-opacity="0.0" d="m174.67455 49.542183l0 0c0 -15.916237 12.902649 -28.8189 28.818893 -28.8189l0 0c7.6432495 0 14.97345 3.0362682 20.378036 8.440861c5.404587 5.4045925 8.440857 12.734789 8.440857 20.378038l0 0c0 15.916237 -12.902649 28.818893 -28.818893 28.818893l0 0c-15.9162445 0 -28.818893 -12.902657 -28.818893 -28.818893z" fill-rule="evenodd"/><path stroke="#002626" stroke-width="2.0" stroke-linejoin="round" stroke-linecap="butt" d="m174.67455 49.542183l0 0c0 -15.916237 12.902649 -28.8189 28.818893 -28.8189l0 0c7.6432495 0 14.97345 3.0362682 20.378036 8.440861c5.404587 5.4045925 8.440857 12.734789 8.440857 20.378038l0 0c0 15.916237 -12.902649 28.818893 -28.818893 28.818893l0 0c-15.9162445 0 -28.818893 -12.902657 -28.818893 -28.818893z" fill-rule="evenodd"/><path fill="#002626" fill-opacity="0.0" d="m201.55019 27.217525l0 0c6.4361877 0 12.60878 2.5567703 17.159866 7.107849c4.551071 4.551079 7.107849 10.723667 7.107849 17.159866l-24.267715 0z" fill-rule="evenodd"/><path fill="#002626" fill-opacity="0.0" d="m201.55019 27.217525l0 0c6.4361877 0 12.60878 2.5567703 17.159866 7.107849c4.551071 4.551079 7.107849 10.723667 7.107849 17.159866" fill-rule="evenodd"/><path stroke="#002626" stroke-width="2.0" stroke-linejoin="round" stroke-linecap="butt" d="m201.55019 27.217525l0 0c6.4361877 0 12.60878 2.5567703 17.159866 7.107849c4.551071 4.551079 7.107849 10.723667 7.107849 17.159866" fill-rule="evenodd"/><path fill="#002626" fill-opacity="0.0" d="m204.29921 71.73156l0 0c-6.436203 0 -12.608795 -2.5567703 -17.159866 -7.107849c-4.5510864 -4.551079 -7.107849 -10.723667 -7.107849 -17.159866l24.267715 0z" fill-rule="evenodd"/><path fill="#002626" fill-opacity="0.0" d="m204.29921 71.73156l0 0c-6.436203 0 -12.608795 -2.5567703 -17.159866 -7.107849c-4.5510864 -4.551079 -7.107849 -10.723667 -7.107849 -17.159866" fill-rule="evenodd"/><path stroke="#002626" stroke-width="2.0" stroke-linejoin="round" stroke-linecap="butt" d="m204.29921 71.73156l0 0c-6.436203 0 -12.608795 -2.5567703 -17.159866 -7.107849c-4.5510864 -4.551079 -7.107849 -10.723667 -7.107849 -17.159866" fill-rule="evenodd"/><path fill="#002626" fill-opacity="0.0" d="m218.0078 49.263508l0 0c0 4.326996 -1.7188873 8.476772 -4.778534 11.536419c-3.0596619 3.0596504 -7.209427 4.7785416 -11.536423 4.7785416l0 -16.31496z" fill-rule="evenodd"/><path fill="#002626" fill-opacity="0.0" d="m218.0078 49.263508l0 0c0 4.326996 -1.7188873 8.476772 -4.778534 11.536419c-3.0596619 3.0596504 -7.209427 4.7785416 -11.536423 4.7785416" fill-rule="evenodd"/><path stroke="#002626" stroke-width="2.0" stroke-linejoin="round" stroke-linecap="butt" d="m218.0078 49.263508l0 0c0 4.326996 -1.7188873 8.476772 -4.778534 11.536419c-3.0596619 3.0596504 -7.209427 4.7785416 -11.536423 4.7785416" fill-rule="evenodd"/><path fill="#002626" fill-opacity="0.0" d="m188.09215 51.101215l0 0c0 -4.326996 1.7189026 -8.4767685 4.778549 -11.536419c3.0596466 -3.0596504 7.209427 -4.7785416 11.536423 -4.7785416l0 16.31496z" fill-rule="evenodd"/><path fill="#002626" fill-opacity="0.0" d="m188.09215 51.101215l0 0c0 -4.326996 1.7189026 -8.4767685 4.778549 -11.536419c3.0596466 -3.0596504 7.209427 -4.7785416 11.536423 -4.7785416" fill-rule="evenodd"/><path stroke="#002626" stroke-width="2.0" stroke-linejoin="round" stroke-linecap="butt" d="m188.09215 51.101215l0 0c0 -4.326996 1.7189026 -8.4767685 4.778549 -11.536419c3.0596466 -3.0596504 7.209427 -4.7785416 11.536423 -4.7785416" fill-rule="evenodd"/></g></svg>