<svg version="1.1" viewBox="0.0 0.0 100.0 100.0" fill="none" stroke="none" stroke-linecap="square" stroke-miterlimit="10" xmlns:xlink="http://www.w3.org/1999/xlink" xmlns="http://www.w3.org/2000/svg"><clipPath id="p.0"><path d="m0 0l100.0 0l0 100.0l-100.0 0l0 -100.0z" clip-rule="nonzero"/></clipPath><g clip-path="url(#p.0)"><path fill="black" fill-opacity="0.0" d="m0 0l100.0 0l0 100.0l-100.0 0z" fill-rule="evenodd"/><path fill="black" fill-opacity="0.0" d="m22.674541 49.542183l0 0c0 -15.916237 12.90266 -28.8189 28.818897 -28.8189l0 0c7.6432457 0 14.97345 3.0362682 20.378036 8.440861c5.4045944 5.4045925 8.440865 12.734789 8.440865 20.378038l0 0c0 15.916237 -12.902664 28.818893 -28.818901 28.818893l0 0c-15.916237 0 -28.818897 -12.902657 -28.818897 -28.818893z" fill-rule="evenodd"/><path stroke="black" stroke-width="2.0" stroke-linejoin="round" stroke-linecap="butt" d="m22.674541 49.542183l0 0c0 -15.916237 12.90266 -28.8189 28.818897 -28.8189l0 0c7.6432457 0 14.97345 3.0362682 20.378036 8.440861c5.4045944 5.4045925 8.440865 12.734789 8.440865 20.378038l0 0c0 15.916237 -12.902664 28.818893 -28.818901 28.818893l0 0c-15.916237 0 -28.818897 -12.902657 -28.818897 -28.818893z" fill-rule="evenodd"/><path fill="black" fill-opacity="0.0" d="m49.550182 27.217525l0 0c6.4361954 0 12.608784 2.5567703 17.159863 7.107849c4.551079 4.551079 7.107849 10.723667 7.107849 17.159866l-24.267712 0z" fill-rule="evenodd"/><path fill="black" fill-opacity="0.0" d="m49.550182 27.217525l0 0c6.4361954 0 12.608784 2.5567703 17.159863 7.107849c4.551079 4.551079 7.107849 10.723667 7.107849 17.159866" fill-rule="evenodd"/><path stroke="black" stroke-width="2.0" stroke-linejoin="round" stroke-linecap="butt" d="m49.550182 27.217525l0 0c6.4361954 0 12.608784 2.5567703 17.159863 7.107849c4.551079 4.551079 7.107849 10.723667 7.107849 17.159866" fill-rule="evenodd"/><path fill="black" fill-opacity="0.0" d="m52.299206 71.73156l0 0c-6.436199 0 -12.608788 -2.5567703 -17.159866 -7.107849c-4.5510807 -4.551079 -7.107851 -10.723667 -7.107851 -17.159866l24.267717 0z" fill-rule="evenodd"/><path fill="black" fill-opacity="0.0" d="m52.299206 71.73156l0 0c-6.436199 0 -12.608788 -2.5567703 -17.159866 -7.107849c-4.5510807 -4.551079 -7.107851 -10.723667 -7.107851 -17.159866" fill-rule="evenodd"/><path stroke="black" stroke-width="2.0" stroke-linejoin="round" stroke-linecap="butt" d="m52.299206 71.73156l0 0c-6.436199 0 -12.608788 -2.5567703 -17.159866 -7.107849c-4.5510807 -4.551079 -7.107851 -10.723667 -7.107851 -17.159866" fill-rule="evenodd"/><path fill="black" fill-opacity="0.0" d="m66.0078 49.263508l0 0c0 4.326996 -1.718895 8.476772 -4.7785416 11.536419c-3.0596466 3.0596504 -7.209423 4.7785416 -11.536419 4.7785416l0 -16.31496z" fill-rule="evenodd"/><path fill="black" fill-opacity="0.0" d="m66.0078 49.263508l0 0c0 4.326996 -1.718895 8.476772 -4.7785416 11.536419c-3.0596466 3.0596504 -7.209423 4.7785416 -11.536419 4.7785416" fill-rule="evenodd"/><path stroke="black" stroke-width="2.0" stroke-linejoin="round" stroke-linecap="butt" d="m66.0078 49.263508l0 0c0 4.326996 -1.718895 8.476772 -4.7785416 11.536419c-3.0596466 3.0596504 -7.209423 4.7785416 -11.536419 4.7785416" fill-rule="evenodd"/><path fill="black" fill-opacity="0.0" d="m36.09215 51.101215l0 0c0 -4.326996 1.718895 -8.4767685 4.7785416 -11.536419c3.0596504 -3.0596504 7.209423 -4.7785416 11.536419 -4.7785416l0 16.31496z" fill-rule="evenodd"/><path fill="black" fill-opacity="0.0" d="m36.09215 51.101215l0 0c0 -4.326996 1.718895 -8.4767685 4.7785416 -11.536419c3.0596504 -3.0596504 7.209423 -4.7785416 11.536419 -4.7785416" fill-rule="evenodd"/><path stroke="black" stroke-width="2.0" stroke-linejoin="round" stroke-linecap="butt" d="m36.09215 51.101215l0 0c0 -4.326996 1.718895 -8.4767685 4.7785416 -11.536419c3.0596504 -3.0596504 7.209423 -4.7785416 11.536419 -4.7785416" fill-rule="evenodd"/></g></svg>